<svg width="40" height="40" viewBox="0 0 40 40" fill="none" xmlns="http://www.w3.org/2000/svg">
<rect width="40" height="40" fill="#333D4B"/>
<path d="M18.5105 18.503C22.0248 14.9919 27.2339 14.4849 30.1228 17.378C33.0132 20.2685 32.5095 25.4782 28.9969 28.9913C27.3095 30.6786 25.1838 31.732 23.0105 31.9571C22.7213 31.9856 22.4344 32.001 22.1541 32.0011C20.2853 32.001 18.6154 31.3451 17.3855 30.1153C15.9697 28.7009 15.3158 26.7027 15.5467 24.4903C15.7702 22.3169 16.8232 20.1905 18.5105 18.503ZM29.9431 17.5587C28.9818 18.7181 28.272 20.0414 27.0916 21.0118C25.8347 22.0451 24.4513 22.4214 22.9305 22.8624C19.5933 23.8315 17.9433 26.6532 17.5623 29.9366C18.6047 28.6842 19.3696 27.28 20.6863 26.2735C21.8382 25.3946 23.0853 25.0464 24.4412 24.6759C27.8519 23.7399 29.5456 20.8945 29.9431 17.5587ZM9.87674 9.87802C12.7657 6.98616 17.9747 7.49166 21.489 11.003C22.425 11.939 23.1426 13.0159 23.6541 14.1544C21.9741 14.4439 20.3461 15.1458 18.9031 16.2003C18.3542 15.8554 17.7555 15.5599 17.0672 15.3604C15.5478 14.9195 14.1629 14.5448 12.906 13.5099C11.7273 12.5394 11.0183 11.2146 10.0555 10.0567C10.4515 13.3927 12.1465 16.2379 15.5574 17.1739C16.1333 17.3314 16.6851 17.4937 17.2234 17.6856C15.5976 19.3985 14.5267 21.485 14.1531 23.6554C13.0146 23.1424 11.9358 22.4273 10.9998 21.4913C7.49146 17.9782 6.98634 12.7685 9.87674 9.87802Z" fill="#0E8784"/>
</svg>
