<svg width="150" height="150" viewBox="0 0 150 150" fill="none" xmlns="http://www.w3.org/2000/svg">
<rect width="150" height="150" fill="#0C0C0C"/>
<g clip-path="url(#clip0_29_453)">
<path d="M39.8136 38.4504L84.08 35.1808C89.5176 34.7144 90.9144 35.0288 94.3336 37.5144L108.464 47.4688C110.794 49.1808 111.57 49.6472 111.57 51.5112V106.106C111.57 109.527 110.328 111.551 105.978 111.86L54.5736 114.974C51.3096 115.128 49.7552 114.662 48.0456 112.483L37.64 98.952C35.7736 96.4616 35 94.5976 35 92.4184V43.8904C35 41.0928 36.2424 38.76 39.8136 38.4504Z" fill="black"/>
<path fill-rule="evenodd" clip-rule="evenodd" d="M84.08 35.1816L39.8136 38.4512C36.2424 38.76 35 41.0936 35 43.8904V92.4184C35 94.5968 35.7736 96.4608 37.64 98.952L48.0456 112.482C49.7552 114.661 51.3096 115.128 54.5736 114.973L105.979 111.861C110.326 111.551 111.571 109.527 111.571 106.106V51.512C111.571 49.744 110.873 49.2344 108.817 47.7256L94.3336 37.5144C90.9152 35.0288 89.5176 34.7144 84.08 35.1808V35.1816ZM55.736 50.6184C51.5384 50.9008 50.5864 50.9648 48.2024 49.0264L42.1416 44.2056C41.5256 43.5816 41.8352 42.8032 43.3872 42.648L85.9416 39.5384C89.5152 39.2264 91.376 40.472 92.7736 41.56L100.072 46.848C100.384 47.0056 101.16 47.936 100.226 47.936L56.28 50.5816L55.736 50.6184ZM50.8424 105.64V59.2936C50.8424 57.2696 51.464 56.336 53.3248 56.1792L103.8 53.224C105.512 53.0696 106.286 54.1576 106.286 56.1784V102.216C106.286 104.24 105.974 105.952 103.179 106.106L54.8776 108.906C52.0832 109.061 50.8432 108.13 50.8432 105.64H50.8424ZM98.5224 61.7784C98.832 63.1784 98.5224 64.5784 97.1224 64.7384L94.7944 65.2V99.4184C92.7728 100.506 90.912 101.128 89.3568 101.128C86.8712 101.128 86.2504 100.35 84.3888 98.0184L69.1648 74.0664V97.24L73.9808 98.3304C73.9808 98.3304 73.9808 101.13 70.0952 101.13L59.3832 101.752C59.0712 101.128 59.3832 99.5736 60.4688 99.264L63.2664 98.488V67.848L59.384 67.5336C59.072 66.1336 59.848 64.112 62.024 63.9552L73.5176 63.1816L89.3576 87.4432V65.9792L85.32 65.5152C85.008 63.8008 86.2504 62.5552 87.8024 62.4032L98.5224 61.7784Z" fill="white"/>
</g>
<defs>
<clipPath id="clip0_29_453">
<rect width="80" height="80" fill="white" transform="translate(35 35)"/>
</clipPath>
</defs>
</svg>
